<svg data-v-fde0c5aa="" xmlns="http://www.w3.org/2000/svg" viewBox="0 0 300 300" class="iconAbove"><!----><defs data-v-fde0c5aa=""><!----></defs><rect data-v-fde0c5aa="" fill="#EBFBFA" x="0" y="0" width="300px" height="300px" class="logo-background-square"></rect><defs data-v-fde0c5aa=""><!----></defs><g data-v-fde0c5aa="" id="f8ba52dd-c6ab-4522-8b5d-eb60076df2a4" fill="#08403F" transform="matrix(5.825677655780976,0,0,5.825677655780976,20.466054245450035,186.4971973130104)"><path d="M3.91 8.55C3.91 8.27 3.68 8.05 3.40 8.05L1.32 8.05L1.32 0.50C1.32 0.22 1.09 0 0.83 0L0.42 0C0.14 0-0.08 0.22-0.08 0.50L-0.08 8.93C-0.08 9.21 0.14 9.44 0.42 9.44L3.40 9.44C3.68 9.44 3.91 9.21 3.91 8.93ZM6.05 0.50C6.05 0.22 5.81 0 5.54 0L5.15 0C4.87 0 4.65 0.22 4.65 0.50L4.65 8.93C4.65 9.21 4.87 9.44 5.15 9.44L5.54 9.44C5.81 9.44 6.05 9.21 6.05 8.93ZM11.13 9.44C11.41 9.44 11.63 9.21 11.63 8.93L11.63 0.50C11.63 0.22 11.41 0 11.13 0L10.74 0C10.46 0 10.23 0.22 10.23 0.50L10.23 5.12L8.29 0.31C8.23 0.15 8.01 0 7.83 0L7.49 0C7.22 0 6.99 0.22 6.99 0.50L6.99 8.93C6.99 9.21 7.22 9.44 7.49 9.44L7.90 9.44C8.16 9.44 8.40 9.21 8.40 8.93L8.40 4.31L10.35 9.13C10.40 9.28 10.64 9.44 10.81 9.44ZM15.46 4.70C14.63 4.70 14.67 6.10 15.46 6.10L15.95 6.10L15.95 6.71C15.95 7.62 15.65 8.05 15.05 8.05C14.43 8.05 14.14 7.62 14.14 6.71C14.14 6.34 14.14 4.94 14.14 2.72C14.14 2.07 14.27 1.74 14.46 1.57C14.62 1.41 14.85 1.39 15.05 1.39C15.25 1.39 15.47 1.41 15.64 1.57C15.81 1.72 15.95 2.06 15.95 2.72L15.95 2.91C15.95 3.19 16.17 3.42 16.45 3.42L16.86 3.42C17.12 3.42 17.35 3.19 17.35 2.91L17.35 2.72C17.35 0.94 16.59 0 15.05 0C13.51 0 12.74 0.94 12.74 2.72L12.74 6.71C12.74 8.47 13.51 9.44 15.05 9.44C16.59 9.44 17.35 8.48 17.35 6.71L17.35 5.21C17.35 4.93 17.12 4.70 16.86 4.70L15.46 4.70ZM18.37 6.69C18.37 7.80 18.68 8.44 19.11 8.88C19.57 9.32 20.16 9.44 20.66 9.44C21.18 9.44 21.77 9.32 22.23 8.88C22.67 8.44 22.96 7.80 22.96 6.69L22.96 2.73C22.96 0.95 22.20 0 20.66 0C19.14 0 18.37 0.97 18.37 2.73ZM19.77 2.73C19.77 1.82 20.05 1.39 20.66 1.39C21.27 1.39 21.56 1.79 21.56 2.73L21.56 6.69C21.56 7.64 21.25 8.05 20.66 8.05C20.06 8.05 19.77 7.62 19.77 6.69ZM27.94 8.55C27.94 8.27 27.72 8.05 27.44 8.05L25.35 8.05L25.35 0.50C25.35 0.22 25.13 0 24.86 0L24.46 0C24.18 0 23.95 0.22 23.95 0.50L23.95 8.93C23.95 9.21 24.18 9.44 24.46 9.44L27.44 9.44C27.72 9.44 27.94 9.21 27.94 8.93ZM32.55 9.04C32.61 9.25 32.83 9.44 33.04 9.44L33.45 9.44C33.78 9.44 34.01 9.14 33.94 8.82L32.00 0.39C31.96 0.18 31.72 0 31.51 0L31.21 0C31.00 0 30.77 0.18 30.72 0.39L29.44 5.87L28.77 8.83C28.70 9.16 28.92 9.44 29.26 9.44L29.67 9.44C29.88 9.44 30.10 9.25 30.16 9.04L30.65 6.86L32.07 6.86ZM31.36 3.23C31.63 4.42 31.60 4.80 31.75 5.47L30.97 5.47ZM38.51 9.44C38.79 9.44 39.02 9.21 39.02 8.93L39.02 0.50C39.02 0.22 38.79 0 38.51 0L38.12 0C37.84 0 37.62 0.22 37.62 0.50L37.62 5.12L35.67 0.31C35.62 0.15 35.39 0 35.21 0L34.87 0C34.61 0 34.37 0.22 34.37 0.50L34.37 8.93C34.37 9.21 34.61 9.44 34.87 9.44L35.28 9.44C35.55 9.44 35.78 9.21 35.78 8.93L35.78 4.31L37.73 9.13C37.79 9.28 38.02 9.44 38.19 9.44ZM42.08 9.44C43.76 9.44 44.55 8.48 44.55 6.66L44.55 2.77C44.55 0.95 43.76 0 42.08 0L40.66 0C40.38 0 40.15 0.22 40.15 0.50L40.15 8.93C40.15 9.21 40.38 9.44 40.66 9.44ZM42.08 1.39C42.83 1.39 43.13 1.83 43.13 2.77L43.13 6.66C43.13 7.60 42.83 8.05 42.08 8.05L41.54 8.05L41.54 1.39Z"></path></g><defs data-v-fde0c5aa=""><linearGradient data-v-fde0c5aa="" gradientTransform="rotate(25)" id="a959b299-d321-42c7-af35-cee99872294b" x1="0%" y1="0%" x2="100%" y2="0%"><stop data-v-fde0c5aa="" offset="0%" stop-color="#41E296" stop-opacity="1"></stop><stop data-v-fde0c5aa="" offset="100%" stop-color="#00C4EE" stop-opacity="1"></stop></linearGradient></defs><g data-v-fde0c5aa="" id="9f831c65-baf2-4cdd-8dfa-6f56479bfc6b" stroke="none" fill="url(#a959b299-d321-42c7-af35-cee99872294b)" transform="matrix(3.437149664126299,0,0,3.437149664126299,95.00560537397921,58.50840806096882)"><path d="M2.83 18.247l26.34-9.124L2.83 0zM29.17 32V13.753L2.83 22.877z"></path></g><!----></svg>